<?xml version="1.0" encoding="iso-8859-1"?>
<!-- Generator: Adobe Illustrator 19.0.0, SVG Export Plug-In . SVG Version: 6.00 Build 0)  -->
<svg version="1.1" id="Capa_1" xmlns="http://www.w3.org/2000/svg" xmlns:xlink="http://www.w3.org/1999/xlink" x="0px" y="0px"
	 viewBox="0 0 511.994 511.994" style="enable-background:new 0 0 511.994 511.994;" xml:space="preserve">
<path style="fill:#54C0EB;" d="M495.517,511.994H16.477l11.829-130.08c7.04-40.747,31.04-74.773,64-95.456
	c9.6-6.08,37.877-22.624,81.707-21.557l23.669,55.371c16.853,10.88,36.704,17.269,58.144,17.269h0.213h0.213
	c21.333,0,41.291-6.4,58.037-17.269l23.669-55.371c43.851-1.067,72.107,15.477,81.707,21.557c32.96,20.683,56.96,54.709,64,95.456
	L495.517,511.994z"/>
<rect x="255.88" y="310.074" style="fill:#FFD15C;" width="0.021" height="0.032"/>
<path style="fill:#F8B64C;" d="M357.939,265.594c-14.933,41.6-54.933,71.893-101.664,71.893h-0.213h-0.213
	c-46.731,0-86.731-30.293-101.643-71.893c4.245-0.437,8.523-0.651,12.896-0.651h17.397v-27.296
	c23.456,30.4,50.976,40.725,64.213,44.149c4.896,1.184,7.787,1.504,7.787,1.504s39.456-3.957,71.563-45.12v26.773h16.96
	C349.395,264.954,353.661,265.157,357.939,265.594"/>
<g>
	<path style="fill:#F2F2F2;" d="M344.829,264.954c3.979,0,7.936,0.192,11.851,0.523
		C352.765,265.157,348.808,264.954,344.829,264.954"/>
	<path style="fill:#F2F2F2;" d="M356.915,265.52c3.851,0.331,7.669,0.832,11.435,1.461
		C364.584,266.352,360.765,265.85,356.915,265.52"/>
	<path style="fill:#F2F2F2;" d="M148.851,266.202c-1.707,0.331-3.52,0.651-5.227,0.981l0.107-0.224
		C145.437,266.64,147.144,266.437,148.851,266.202"/>
</g>
<g>
	<path style="fill:#F8B64C;" d="M165.16,130.224c4.224,18.144,1.984,34.187-5.003,35.808s-16.085-11.755-20.309-29.899
		c-4.245-18.165-2.005-34.187,4.981-35.808C151.827,98.682,160.915,112.08,165.16,130.224"/>
	<path style="fill:#F8B64C;" d="M347.08,130.224c-4.245,18.144-2.005,34.187,4.981,35.808c6.997,1.621,14.859-12.085,20.331-29.899
		c3.253-10.645,1.749-32.373-5.003-35.808C361,97.061,351.315,112.08,347.08,130.224"/>
</g>
<path style="fill:#FFD15C;" d="M356.285,182.97c-29.397,93.248-99.808,100.331-99.808,100.331s-70.421-7.083-99.808-100.331
	c0,0-15.712-48.651-2.517-89.163c0,0,8.064-69.163,102.336-69.163s102.357,69.163,102.357,69.163
	C372.019,134.33,356.285,182.97,356.285,182.97"/>
<path style="fill:#84DBFF;" d="M148.851,266.202c-1.707,0.331-3.52,0.651-5.227,0.981l0.107-0.224
	C145.437,266.64,147.144,266.437,148.851,266.202"/>
<g>
	<path style="fill:#F2F2F2;" d="M211.667,327.845c-26.603-12.128-47.563-34.667-57.483-62.251l-40.981,54.837l72.107,50.293
		l-23.915,53.483l71.083,87.787h24l-44.747-184.085L211.667,327.845z"/>
	<path style="fill:#F2F2F2;" d="M301.309,327.845c26.603-12.128,47.563-34.667,57.461-62.251l41.003,54.837l-72.128,50.293
		l23.915,53.483l-71.061,87.787h-24.021l44.768-184.085L301.309,327.845z"/>
</g>
<path style="fill:#FF7058;" d="M256.264,337.498h-0.213h-0.213c-15.733,0-30.688-3.499-44.192-9.664l44.832,184.16l44.811-184.171
	h-0.832C286.952,334,272.019,337.498,256.264,337.498"/>
<g style="opacity:0.1;">
	<g>
		<path style="fill:#40596B;" d="M328.061,264.954v-26.773c-32.107,41.163-71.563,45.12-71.563,45.12s-2.891-0.309-7.787-1.504
			c-5.621-1.44-13.941-4.309-23.339-9.291l-0.043,0.085l60.608,60.608c33.44-9.685,60.352-35.168,72-67.605
			c-4.267-0.437-8.544-0.651-12.917-0.651h-16.96V264.954z"/>
	</g>
</g>
<path style="fill:#40596B;" d="M421.245,337.114c-12.416-2.933-14.709,7.829-14.709,7.829c18.101,17.643-17.184,3.936-17.184,3.936
	c-17.184-2.955-1.984,13.707-1.984,13.707c9.067,32.331-15.808,30.357-15.808,30.357c10.165-7.829-12.853-23.477-12.853-23.477
	c-22.997-15.712-7.456-35.296-7.456-35.296c13.547-6.837,4.544-13.707,4.544-13.707c-15.808-8.832-25.963,13.707-25.963,13.707
	c-12.416-8.832,1.141-23.52,1.141-23.52c7.872-5.856-6.773-15.669-6.773-15.669c-14.837-7.936-6.731-34.272,1.44-52.896
	c7.275-16.629,11.083-34.624,12.064-52.747c4.224-78.891-5.685-72.725-5.685-72.725c-30.315-17.707-40.245-50.88-40.245-50.88
	s-40.853,49.269-96.768,63.275c0,0-11.371,8.416-15.893,45.984c-2.976,24.768,1.44,49.707,10.667,72.896
	c7.125,17.92,12.352,39.936-0.981,47.104c0,0-14.645,9.813-6.773,15.669c0,0,13.547,14.688,1.12,23.52
	c0,0-10.144-22.539-25.941-13.707c0,0-9.024,6.88,4.48,13.707c0,0,15.541,19.584-7.435,35.296c0,0-22.997,15.648-12.853,23.477
	c0,0-24.853,1.984-15.829-30.357c0,0,15.253-16.672-1.941-13.707c0,0-35.275,13.707-17.227-3.936c0,0-2.251-10.773-14.645-7.829
	c0,0-41.749-1.941,7.851-57.792c0,0-19.168-21.312,9.088-40.565c0,0-13.557-25.088,2.229-46.667c0,0,3.392-56.768,20.331-96
	c0,0,12.352-112.672,125.227-94.016c112.896-18.656,125.248,94.016,125.248,94.016c16.939,39.232,20.331,96,20.331,96
	c15.787,21.579,2.251,46.667,2.251,46.667c28.224,19.253,9.003,40.565,9.003,40.565
	C462.995,335.184,421.245,337.114,421.245,337.114"/>
<g>
</g>
<g>
</g>
<g>
</g>
<g>
</g>
<g>
</g>
<g>
</g>
<g>
</g>
<g>
</g>
<g>
</g>
<g>
</g>
<g>
</g>
<g>
</g>
<g>
</g>
<g>
</g>
<g>
</g>
</svg>
